<svg xmlns="http://www.w3.org/2000/svg" xmlns:xlink="http://www.w3.org/1999/xlink" width="32.924" height="41.923" viewBox="0 0 32.924 41.923"><defs><clipPath id="a"><rect width="32.924" height="41.923" fill="none"/></clipPath></defs><g clip-path="url(#a)"><path d="M34.149,15.718a15.726,15.726,0,0,1-.362,3.367h0a2.637,2.637,0,0,0-1.433.68c-1.613,1.491-3.724,1.8-6.4,1.8-1.483,0-3.618-1.565-5.032-2.6-.347-.255-.675-.5-.984-.709a13.882,13.882,0,0,0-4.088-1.92,17.477,17.477,0,0,0-4.841-.644c-2.909,0-6.208,1.831-8.013,3a15.718,15.718,0,1,1,31.153-2.967" transform="translate(-2.25)" fill="#f3a702"/><path d="M23.7,109.254c-2.684,0-5.3-1.914-7.2-3.311-.326-.239-.634-.464-.9-.65a11.789,11.789,0,0,0-6.839-1.912c-2.384,0-5.946,2.286-7.118,3.167A1.025,1.025,0,0,1,.409,104.91c.194-.146,4.792-3.579,8.351-3.579a13.792,13.792,0,0,1,8.005,2.275c.292.2.611.436.948.683,1.679,1.23,3.978,2.915,5.992,2.915,2.644,0,5.382-.27,7.5-2.228a1.025,1.025,0,0,1,1.392,1.5c-2.642,2.443-5.977,2.773-8.891,2.773" transform="translate(0 -84.021)" fill="#55b6b4"/><path d="M10.708,146.4a1.025,1.025,0,0,1-1.025-1.025v-6.937a1.025,1.025,0,1,1,2.05,0v6.937a1.025,1.025,0,0,1-1.025,1.025" transform="translate(-8.029 -113.942)" fill="#55b6b4"/><path d="M33.245,137.318a1.025,1.025,0,0,1-1.025-1.025v-9.427a1.025,1.025,0,0,1,2.05,0v9.427a1.025,1.025,0,0,1-1.025,1.025" transform="translate(-26.716 -104.344)" fill="#55b6b4"/><path d="M55.711,146.268a1.025,1.025,0,0,1-1.025-1.025V126.867a1.025,1.025,0,0,1,2.05,0v18.376a1.025,1.025,0,0,1-1.025,1.025" transform="translate(-45.344 -104.345)" fill="#55b6b4"/><path d="M78.173,142.293a1.025,1.025,0,0,1-1.025-1.025V134.7a1.025,1.025,0,1,1,2.05,0v6.571a1.025,1.025,0,0,1-1.025,1.025" transform="translate(-63.969 -110.838)" fill="#55b6b4"/><path d="M100.589,150.444a1.025,1.025,0,0,1-1.025-1.025V147.5a1.025,1.025,0,1,1,2.05,0v1.921a1.025,1.025,0,0,1-1.025,1.025" transform="translate(-82.556 -121.452)" fill="#55b6b4"/><path d="M123.162,168.369a1.025,1.025,0,0,1-1.025-1.025v-9.086a1.025,1.025,0,1,1,2.05,0v9.086a1.025,1.025,0,0,1-1.025,1.025" transform="translate(-101.273 -130.374)" fill="#55b6b4"/><path d="M145.632,167.816a1.025,1.025,0,0,1-1.025-1.025v-8.046a1.025,1.025,0,1,1,2.05,0v8.046a1.025,1.025,0,0,1-1.025,1.025" transform="translate(-119.905 -130.778)" fill="#55b6b4"/><path d="M168.092,158.557a1.025,1.025,0,0,1-1.025-1.025v-3.641a1.025,1.025,0,1,1,2.05,0v3.641a1.025,1.025,0,0,1-1.025,1.025" transform="translate(-138.528 -126.753)" fill="#55b6b4"/></g></svg>