<svg xmlns="http://www.w3.org/2000/svg" width="50.275" height="41.923" viewBox="0 0 50.275 41.923"><g transform="translate(0)"><path d="M27.332,9.257a16.076,16.076,0,0,1,10.3,0l.3.092a15.732,15.732,0,0,1,8.856,8.147c.08.183.149.366.24.549a15,15,0,0,1,1.041,4.233,9.759,9.759,0,0,1,.069,1.533.767.767,0,0,1-.789.732H17.6a.789.789,0,0,1-.835-.744v-.092a15.5,15.5,0,0,1,1.007-5.378,15.664,15.664,0,0,1,4.783-6.476,16.019,16.019,0,0,1,4.359-2.46Z" transform="translate(-2.492 -8.41)" fill="#53cbc8"/><path d="M11.349,25.013a.95.95,0,1,1,.275,1.785.938.938,0,0,1-.275-1.785Z" transform="translate(-3.351 -6.031)" fill="#e1147b"/><path d="M14.027,25.186a1.877,1.877,0,0,1,.95-.286H50.755a1.831,1.831,0,0,1,.984.286,1.144,1.144,0,0,1,.183.858.927.927,0,0,1-.973.709H14.656a.973.973,0,0,1-.629-1.568Z" transform="translate(-2.917 -6.032)" fill="#e1147b"/><path d="M4.427,29.066c.217-.229.446-.538.812-.515a.938.938,0,0,1,1.041.812.561.561,0,0,1,0,.137.961.961,0,0,1-.984.927H5.1a1.144,1.144,0,0,1-.709-.5v-.08l-.1-.126v-.309C4.519,29.317,4.53,29.214,4.427,29.066Z" transform="translate(-4.29 -5.507)" fill="#e1147b"/><path d="M7.872,28.635l.458-.08h8.227a13.1,13.1,0,0,1,1.773,0c.789,0,1.568.069,2.357,0H32.952a11,11,0,0,0,1.373,0,1.236,1.236,0,0,1,1.293.435.973.973,0,0,1-.332,1.362l-.126.057H8.536a1.327,1.327,0,0,1-.755-.16.938.938,0,0,1-.366-1.018,1.865,1.865,0,0,1,.446-.618Z" transform="translate(-3.844 -5.511)" fill="#e1147b"/><path d="M11.525,32.3a.961.961,0,0,1,1.144.652.95.95,0,0,1-.675,1.144.973.973,0,0,1-.938-.24.938.938,0,0,1,.423-1.579Z" transform="translate(-3.355 -4.969)" fill="#e1147b"/><path d="M13.831,33.295a.881.881,0,0,1,.744-.973,13.526,13.526,0,0,1,1.362,0h30.71a.938.938,0,0,1,.938.572,1.281,1.281,0,0,1-.172,1.053h0a7.345,7.345,0,0,1-2.071.149H15.169a7.417,7.417,0,0,1-.881-.08h-.057A1.774,1.774,0,0,1,13.831,33.295Z" transform="translate(-2.915 -4.965)" fill="#e1147b"/><path d="M6.51,36.085a.95.95,0,0,1,1.293.378.938.938,0,1,1-1.293-.378Z" transform="translate(-4.038 -4.437)" fill="#e1147b"/><path d="M9.1,36.539A.927.927,0,0,1,10.062,36H22.533a.909.909,0,0,1,.881,1.442,1.739,1.739,0,0,1-1.076.355H11.057a4.691,4.691,0,0,1-1.442-.092.87.87,0,0,1-.538-1.144Z" transform="translate(-3.608 -4.433)" fill="#e1147b"/><path d="M23.465,36.623a.881.881,0,0,1,.892-.618h25.5a2.552,2.552,0,0,1,1.773.32,1.041,1.041,0,0,1,0,1.144,1.522,1.522,0,0,1-.973.355H25.639a10.3,10.3,0,0,1-1.453,0,.881.881,0,0,1-.744-1.03A.412.412,0,0,1,23.465,36.623Z" transform="translate(-1.531 -4.437)" fill="#e1147b"/><path d="M25.056,40.3a1.213,1.213,0,0,1,.629-.629,1.064,1.064,0,0,1,1.144.538.938.938,0,0,1-.481,1.259.973.973,0,0,1-1.27-.481.892.892,0,0,1,0-.687Z" transform="translate(-1.303 -3.905)" fill="#e1147b"/><path d="M28,40.379a1,1,0,0,1,.915-.709h16.7a1.018,1.018,0,0,1,.629.915.961.961,0,0,1-.961.961H29.018A1.144,1.144,0,0,1,28,40.814Z" transform="translate(-0.872 -3.903)" fill="#e1147b"/><path d="M16.291,44.175a.961.961,0,1,1,1.659.778,1.007,1.007,0,0,1-.275.217,2.77,2.77,0,0,1-.87,0A.973.973,0,0,1,16.291,44.175Z" transform="translate(-2.561 -3.374)" fill="#e1147b"/><path d="M19.8,43.462a.938.938,0,0,1,.458-.092H36.627a.95.95,0,0,1,.778,1.384,1.144,1.144,0,0,1-.961.538h-16.1a1.144,1.144,0,0,1-.881-.423.938.938,0,0,1,.195-1.327Z" transform="translate(-2.13 -3.37)" fill="#e1147b"/></g></svg>